<?xml version="1.0" encoding="UTF-8"?>
<!DOCTYPE svg PUBLIC "-//W3C//DTD SVG 1.1//EN" "http://www.w3.org/Graphics/SVG/1.1/DTD/svg11.dtd">
<!-- Creator: CorelDRAW 2020 (64-Bit) -->
<svg xmlns="http://www.w3.org/2000/svg" xml:space="preserve" width="176.361mm" height="176.361mm" version="1.1" style="shape-rendering:geometricPrecision; text-rendering:geometricPrecision; image-rendering:optimizeQuality; fill-rule:evenodd; clip-rule:evenodd"
viewBox="0 0 17627.6 17627.6"
 xmlns:xlink="http://www.w3.org/1999/xlink"
 xmlns:xodm="http://www.corel.com/coreldraw/odm/2003">
 <defs>
  <style type="text/css">
   <![CDATA[
    .fil11 {fill:none}
    .fil0 {fill:#FAD7D4}
    .fil9 {fill:#FEFEFE;fill-rule:nonzero}
    .fil10 {fill:#212564;fill-rule:nonzero}
    .fil4 {fill:#212564;fill-rule:nonzero}
    .fil7 {fill:#344386;fill-rule:nonzero}
    .fil5 {fill:#3D4F9F;fill-rule:nonzero}
    .fil6 {fill:#5460AA;fill-rule:nonzero}
    .fil8 {fill:#BD1018;fill-rule:nonzero}
    .fil2 {fill:#EB5147;fill-rule:nonzero}
    .fil1 {fill:#EE7065;fill-rule:nonzero}
    .fil3 {fill:#F08682;fill-rule:nonzero}
   ]]>
  </style>
 </defs>
 <g id="Capa_x0020_1">
  <metadata id="CorelCorpID_0Corel-Layer"/>
  <g id="_2934578783712">
   <g>
    <path class="fil0" d="M8813.79 2369.53c3498.82,0 6335.15,2836.36 6335.15,6335.14 0,2349.13 -1278.6,4399.67 -3177.85,5493.55 -929.46,535.35 -2007.65,-519.36 -3157.32,-519.36 -1143.72,0 -2216.65,1057.86 -3142.84,527.65 -1907.18,-1091.82 -3192.27,-3146.77 -3192.27,-5501.84 0,-3498.78 2836.33,-6335.14 6335.14,-6335.14z"/>
    <polygon class="fil1" points="9866.62,8941.06 13025.15,9993.89 11972.25,11046.72 8813.76,9993.89 "/>
    <polygon class="fil2" points="8813.76,12099.61 11972.25,11046.72 11972.25,14205.24 8813.76,15258.08 "/>
    <polygon class="fil3" points="8813.76,15258.08 5655.28,14205.24 5655.28,11046.72 8813.76,12099.61 "/>
    <polygon class="fil3" points="7760.95,8941.06 4602.44,9993.89 5655.28,11046.72 8813.76,9993.89 "/>
    <polygon class="fil3" points="9866.62,13152.38 13025.15,12099.61 11972.25,11046.72 8813.76,12099.61 9756.18,13041.97 "/>
    <polygon class="fil2" points="7760.95,13152.38 4602.44,12099.61 5655.28,11046.72 8813.76,12099.61 "/>
    <g>
     <path class="fil4" d="M7216.77 14199.12c-29.42,-9.8 -45.32,-41.61 -35.52,-71.03 9.8,-29.42 41.61,-45.32 71.03,-35.52l-35.5 106.55zm565.02 188.31l-565.02 -188.31 35.5 -106.55 565.02 188.31 0 0 -35.5 106.55zm35.5 -106.55c29.42,9.8 45.32,41.61 35.52,71.03 -9.8,29.42 -41.61,45.32 -71.03,35.52l35.5 -106.55zm529.52 294.86l-565.02 -188.31 35.5 -106.55 565.02 188.31 -35.5 106.55zm35.5 -106.55c29.42,9.8 45.32,41.61 35.52,71.03 -9.8,29.42 -41.61,45.32 -71.03,35.52l35.5 -106.55z"/>
    </g>
    <g>
     <path class="fil4" d="M7781.78 13946.83c-29.42,-9.81 -45.31,-41.61 -35.5,-71.03 9.81,-29.42 41.61,-45.31 71.03,-35.5l-35.52 106.53zm565.02 188.41l-565.02 -188.41 35.52 -106.53 565.02 188.41 -35.52 106.53zm35.52 -106.53c29.42,9.81 45.31,41.61 35.5,71.03 -9.81,29.42 -41.61,45.31 -71.03,35.5l35.52 -106.53z"/>
    </g>
    <polygon class="fil4" points="10958.11,13516.95 11523.13,13328.65 11523.13,13881.44 10958.11,14069.84 "/>
    <polygon class="fil5" points="8813.76,12099.61 11972.25,11046.72 8813.76,9993.89 "/>
    <polygon class="fil6" points="8813.76,9993.89 5655.28,11046.72 8813.76,12099.61 "/>
    <path class="fil2" d="M8663.74 9843.87l-902.8 -902.81 -252.76 84.25c253.43,412.22 667.07,714.91 1155.56,818.56z"/>
    <path class="fil2" d="M6325.5 10823.32l1092.33 -364.11 158.22 -307.71c-402.05,-237.51 -709.98,-518.23 -934.48,-837.32l-1131.07 377.02c49.23,109.24 102.56,217.19 163.64,322.75 180.28,316.27 398.28,584.89 651.36,809.36z"/>
    <path class="fil2" d="M8929.57 9878.07c36.2,2.17 72.06,5.51 108.72,5.51 595.01,0 1120.85,-290.45 1447.87,-735.98l-619.54 -206.53 -937.05 937z"/>
    <path class="fil2" d="M11155.67 10009.36l-458.2 -362.13 -87.94 945.26 1103.78 367.9 468.9 -126.1 -508.43 -398.76c254.52,-185.91 468.14,-413.78 647.94,-676.09l-756.74 -252.27c-107.82,187.13 -243.11,355.32 -409.32,502.18z"/>
    <polygon class="fil7" points="10546.1,11274.33 11713.31,10960.4 10609.53,10592.49 "/>
    <path class="fil7" d="M6998.75 11274.33l419.08 -815.11 -1092.33 364.11c201.69,178.89 425.18,330.35 673.25,451z"/>
    <path class="fil8" d="M10610.51 7637.52c0,-992.36 -804.45,-1796.84 -1796.84,-1796.84 -992.36,0 -1796.85,804.47 -1796.85,1796.84 0,992.36 804.48,1796.84 1796.85,1796.84 992.38,0 1796.84,-804.47 1796.84,-1796.84z"/>
    <path class="fil9" d="M7679.05 8529.12l397.85 -528.89 295.42 -405.6 -546.76 -848.71c169.75,2.38 315.67,3.57 437.76,3.57 153.67,0 279.93,-1.19 378.8,-3.57l184.04 400.23c11.31,24.43 28.59,61.95 50.03,113.17 89.94,-153.67 195.95,-324.59 318.05,-513.39 103.63,2.38 227.51,3.57 371.64,3.57 134.02,0 261.46,-1.19 382.38,-3.57l-279.34 366.88c-54.79,72.07 -171.53,230.49 -350.8,474.68 107.21,185.23 303.15,499.1 587.25,941.63 -131.62,-2.38 -260.86,-3.58 -388.91,-3.58 -156.05,0 -295.42,1.2 -418.7,3.58 -76.24,-163.19 -134.02,-283.5 -174.52,-361.53 -40.5,-78.02 -74.44,-149.49 -102.44,-215.01l-55.98 96.48c-17.27,28.6 -44.07,72.07 -80.4,129.25l-221.56 350.8c-125.67,-2.38 -247.76,-3.58 -366.88,-3.58 -136.98,0 -276.36,1.2 -416.91,3.58z"/>
    <path class="fil10" d="M12649.86 7488.46c0,491.99 -100.92,956.56 -302.65,1393.27 -213.74,455.35 -513.31,823.62 -898.03,1104.6l508.43 398.76 -1636.1 440 151.38 -1627.07 458.18 362.13c473.56,-418.5 710.49,-1000.63 710.49,-1746.13 0,-956.35 -455.42,-1703.38 -1365.87,-2241.08l577.5 -1122.93c562.22,271.91 1005.24,692.04 1329.04,1260.23 311.97,544.08 467.65,1136.65 467.65,1778.23zm-5298.43 2213.83l-577.3 1122.8c-559.32,-271.99 -1000.63,-692.03 -1324.6,-1260.33 -314.75,-543.97 -472.01,-1136.62 -472.01,-1778.18 0,-492.01 102.43,-956.35 306.85,-1393.25 214.08,-455.39 511.95,-823.45 893.82,-1104.56l-508.66 -403.46 1636.28 -435.31 -151.35 1627.08 -458.42 -362.19c-473.56,418.77 -710.23,1000.57 -710.23,1746.13 0,956.36 455.14,1703.43 1365.61,2241.26z"/>
   </g>
   <rect class="fil11" x="-0.02" y="-0.01" width="17627.6" height="17627.6"/>
  </g>
 </g>
</svg>
