<svg xmlns="http://www.w3.org/2000/svg" xmlns:xlink="http://www.w3.org/1999/xlink" viewBox="0 0 116.15 272.14"><defs><style>.cls-1{fill:url(#Degradado_sin_nombre_1177);}.cls-2{fill:url(#Degradado_sin_nombre_1177-2);}.cls-3{fill:url(#Degradado_sin_nombre_1177-3);}.cls-4{fill:url(#Degradado_sin_nombre_1199);}.cls-5{fill:url(#Degradado_sin_nombre_1199-2);}.cls-6{fill:#0a2042;}.cls-7{fill:url(#Degradado_sin_nombre_1113);}.cls-8{fill:url(#Degradado_sin_nombre_1211);}.cls-9{fill:url(#Degradado_sin_nombre_31);}.cls-10{fill:url(#Degradado_sin_nombre_31-2);}.cls-11{fill:#bfcfe2;}.cls-12{fill:#7e9ece;}.cls-13{fill:url(#Degradado_sin_nombre_31-3);}.cls-14{fill:url(#Degradado_sin_nombre_12);}.cls-15{fill:url(#Degradado_sin_nombre_12-2);}.cls-16{fill:url(#Degradado_sin_nombre_31-4);}.cls-17{fill:#5a0c6d;}</style><linearGradient id="Degradado_sin_nombre_1177" x1="41.39" y1="235.07" x2="84.96" y2="204.53" gradientUnits="userSpaceOnUse"><stop offset="0" stop-color="#6190d6"/><stop offset="1" stop-color="#b9d2fc"/></linearGradient><linearGradient id="Degradado_sin_nombre_1177-2" x1="100.76" y1="196.18" x2="35.18" y2="237.95" xlink:href="#Degradado_sin_nombre_1177"/><linearGradient id="Degradado_sin_nombre_1177-3" x1="-2.58" y1="247.73" x2="77.88" y2="247.73" xlink:href="#Degradado_sin_nombre_1177"/><linearGradient id="Degradado_sin_nombre_1199" x1="84.15" y1="218.11" x2="71.18" y2="228.37" gradientUnits="userSpaceOnUse"><stop offset="0" stop-color="#d16a0d"/><stop offset="1" stop-color="#ffbd39"/></linearGradient><linearGradient id="Degradado_sin_nombre_1199-2" x1="54.98" y1="209.31" x2="42.28" y2="221.47" xlink:href="#Degradado_sin_nombre_1199"/><linearGradient id="Degradado_sin_nombre_1113" x1="85.65" y1="13.43" x2="85.65" y2="43.33" gradientUnits="userSpaceOnUse"><stop offset="0" stop-color="#112d93"/><stop offset="1" stop-color="#4060ff"/></linearGradient><linearGradient id="Degradado_sin_nombre_1211" x1="1224.57" y1="35.68" x2="1231.86" y2="90.73" gradientTransform="matrix(-1, 0, 0, 1, 1295.38, 0)" gradientUnits="userSpaceOnUse"><stop offset="0" stop-color="#690b7f"/><stop offset="1" stop-color="#cb3de8"/></linearGradient><linearGradient id="Degradado_sin_nombre_31" x1="1259.2" y1="37.45" x2="1265.6" y2="85.72" gradientTransform="matrix(-1, 0, 0, 1, 1295.38, 0)" gradientUnits="userSpaceOnUse"><stop offset="0" stop-color="#ff817b"/><stop offset="0.13" stop-color="#ff8d84"/><stop offset="0.47" stop-color="#ffa899"/><stop offset="0.77" stop-color="#ffb9a6"/><stop offset="1" stop-color="#ffbfab"/></linearGradient><linearGradient id="Degradado_sin_nombre_31-2" x1="1189.64" y1="40.31" x2="1196.94" y2="95.36" xlink:href="#Degradado_sin_nombre_31"/><linearGradient id="Degradado_sin_nombre_31-3" x1="1283.61" y1="75.51" x2="1270.47" y2="75.92" xlink:href="#Degradado_sin_nombre_31"/><linearGradient id="Degradado_sin_nombre_12" x1="-108.33" y1="28.59" x2="-108.33" y2="38.7" gradientTransform="matrix(-1, 0, 0, 1, -34.97, 0)" gradientUnits="userSpaceOnUse"><stop offset="0" stop-color="#ff817b"/><stop offset="1" stop-color="#ffbfab"/></linearGradient><linearGradient id="Degradado_sin_nombre_12-2" x1="-107.91" y1="16.38" x2="-107.91" y2="26.97" xlink:href="#Degradado_sin_nombre_12"/><linearGradient id="Degradado_sin_nombre_31-4" x1="91.02" y1="121.18" x2="91.02" y2="106.46" gradientTransform="matrix(1, 0, 0, 1, 0, 0)" xlink:href="#Degradado_sin_nombre_31"/></defs><g id="Capa_2" data-name="Capa 2"><g id="OBJECTS"><path class="cls-1" d="M96.34,219.24c3.93,2.27,4,5.95,0,8.22L65.31,245.52a15.61,15.61,0,0,1-14.18,0L19.85,227.46c-3.93-2.27-3.94-6,0-8.21l31.07-18.06a15.64,15.64,0,0,1,14.18,0Z"/><path class="cls-2" d="M112,217.57c5.53,3.19,5.56,8.37.07,11.57L68.27,254.58c-5.51,3.2-14.45,3.2-20,0L4.22,229.14a8.87,8.87,0,0,1-3.53-3.37,2.91,2.91,0,0,1-.18-.35c-.07-.15-.12-.29-.18-.44l-.15-.5-.06-.3a3.47,3.47,0,0,1-.06-.45c-.19-2.22,1.17-4.47,4.09-6.17l43.78-25.44c5.5-3.19,14.45-3.19,20,0Zm-46.67,28,31.08-18.06c3.9-2.27,3.88-6,0-8.22L65.06,201.18a15.64,15.64,0,0,0-14.18,0L19.81,219.25c-3.9,2.26-3.89,5.94,0,8.21l31.28,18.06a15.61,15.61,0,0,0,14.18,0"/><path class="cls-3" d="M112.05,229.14,68.27,254.58c-5.51,3.2-14.46,3.2-20,0L4.22,229.14a8.87,8.87,0,0,1-3.53-3.37,2.91,2.91,0,0,1-.18-.35c-.07-.15-.12-.29-.18-.44l-.15-.5-.06-.3a3.47,3.47,0,0,1-.06-.45c0-.14,0-.28,0-.42l0,15.16c0,.14,0,.28,0,.42a3.47,3.47,0,0,0,.06.45c0,.1,0,.2.06.3a4.13,4.13,0,0,0,.15.5,4.07,4.07,0,0,0,.18.44,3.78,3.78,0,0,0,.17.35,8.9,8.9,0,0,0,3.54,3.37l44.06,25.44c5.53,3.2,14.48,3.2,20,0L112,244.3c2.73-1.59,4.1-3.67,4.11-5.75l0-15.16C116.14,225.47,114.78,227.55,112.05,229.14Z"/><path class="cls-4" d="M72.66,218.9s-7.81,9.7-10.1,12.93c-2.2,3.08,1.58,4.83,4.31,4.18,2.2-.52,11.8-6,15.41-8.16a2.8,2.8,0,0,0,1.38-2.45l0-4Z"/><path class="cls-5" d="M45,211.4s-8.72,8.13-11,11.36,1.59,4.82,4.32,4.17c2.19-.53,10.92-6.46,14.73-8.43a2.77,2.77,0,0,0,1.5-2.45l.08-4.65Z"/><path class="cls-6" d="M66.14,117.88s-3.76,36.73-5.82,52.48c-2.15,16.46-5.72,43.24-5.72,43.24s-9.51,4.39-9.7-2.17c0,0-3.24-87.15-2.55-101.71.63-13.55,4.36-18.36,4.36-18.36L87.4,100c10.48,22.6,2.38,42.67,1.12,66.94l-4.89,55.29s-10.58,4.17-11.4-1.93C72.23,220.29,69.26,159.26,66.14,117.88Z"/><path class="cls-7" d="M62.42,13.75S60.46,1.17,72.94.08c13.72-1.19,17.57,10.58,15.68,20-1.61,8,.83,13.87,10.65,12a8.18,8.18,0,0,1,8.94,4.58h0A8.18,8.18,0,0,1,105,47.13c-7.3,4.39-19.35,9.55-25.85,1-9.74-12.83-10-28.3-10-28.3S64.45,21.39,62.42,13.75Z"/><path class="cls-8" d="M48.38,38,43.88,61.7,18.79,72s-2.33,6.13,3,8.85L48.9,76.6a40.85,40.85,0,0,1-2,13.37,4.76,4.76,0,0,0,.57,4.21c3.16,4.6,12.82,14.72,36.62,15a5.11,5.11,0,0,0,5.14-5.43c-.56-8.39-.09-20.13,3.28-38.13L97.33,77.3l-8,22.69s3.27,4,7.61,4.22l13.85-21.63A10.88,10.88,0,0,0,112.12,73L102,47.21c-3.62-7.35-8-8.35-14.92-11L61.49,30.35A11.09,11.09,0,0,0,48.38,38Z"/><path class="cls-9" d="M18.79,72s-2.33,6.13,3,8.85l22.06-3.44a23.51,23.51,0,0,1-5.22-13.55Z"/><path class="cls-10" d="M95.67,82,89.38,100s3.27,4,7.61,4.22L108,87A25.17,25.17,0,0,1,95.67,82Z"/><path class="cls-11" d="M29.4,84.35l.65-.55a1.89,1.89,0,0,0,.52-2.13L23,62.6a1.81,1.81,0,0,0-1.3-1.1L11.62,59.36a1.92,1.92,0,0,0-1.42.26L9,60.4l8.63,19.5C17.86,80.46,28.81,84.22,29.4,84.35Z"/><path class="cls-12" d="M17.8,82.14l10.89,2.38a.85.85,0,0,0,1-1.14L21.87,63.74a1.81,1.81,0,0,0-1.3-1.1L9.68,60.26a.85.85,0,0,0-1,1.14L16.5,81A1.79,1.79,0,0,0,17.8,82.14Z"/><path class="cls-13" d="M12.31,70.49S23.09,70.11,24,75c.81,4.19-6.2,5.82-7.66,5.72S10.9,73.9,12.31,70.49Z"/><path class="cls-14" d="M73.36,42.21h0a5.84,5.84,0,0,0,5.83-5.84V27.19s-5.11-.58-5.3-3.83,5.3-4,5.3-4H67.52v17A5.84,5.84,0,0,0,73.36,42.21Z"/><path class="cls-15" d="M78.44,23.09a6.38,6.38,0,0,0,.84,4,4.51,4.51,0,0,1-2.89,1.77l-7.68,1.37a4.29,4.29,0,0,1-5-3.79l-1.3-12.7C64.65,17.87,74,17.4,76.78,16.14c1.55-.69,3.33-2.07,3.31-4.05h0l.35-.15h0c1.16-.56,3.12-.58,3,1.57A8.42,8.42,0,0,1,80.9,18.8,5.76,5.76,0,0,0,78.44,23.09Z"/><path class="cls-16" d="M89.38,100s-5.22,7-5.23,8.9c0,2.66,6.87,6.94,9.57,6.94,2.2-.43,4.37-4.59,4.15-5.88s-2.71-.57-2.71-.57A46.44,46.44,0,0,0,97,104.21S91.61,102.4,89.38,100Z"/><path class="cls-17" d="M49,58.38A89.68,89.68,0,0,1,49.17,69c-.11,3.14-.2,5.76-.27,7.59A64.45,64.45,0,0,0,50,69.06a58.66,58.66,0,0,0,.16-10.8A31.92,31.92,0,0,1,50,52.72,12.1,12.1,0,0,1,51.17,48a11.22,11.22,0,0,1,2.56-3.25c.44-.45.94-.77,1.36-1.13l1.25-.86L55,43.45a13.68,13.68,0,0,0-1.53,1,10.51,10.51,0,0,0-3,3.21,12.14,12.14,0,0,0-1.55,5A27.83,27.83,0,0,0,49,58.38Z"/></g></g></svg>